<?xml version="1.0" encoding="utf-8"?>
<!-- Generator: Adobe Illustrator 22.0.1, SVG Export Plug-In . SVG Version: 6.00 Build 0)  -->
<svg version="1.1" xmlns="http://www.w3.org/2000/svg" xmlns:xlink="http://www.w3.org/1999/xlink" x="0px" y="0px"
	 viewBox="0 0 410 379" style="enable-background:new 0 0 410 379;" xml:space="preserve">
<style type="text/css">
	.st0{fill:#FFFFFF;}
	.st1{fill:#FF4136;}
	.st2{fill:#85144B;}
	.st3{fill:#231F20;}
	.st4{fill:#1A1A1A;}
	.st5{fill:#989898;}
	.st6{fill:none;stroke:#1A1A1A;stroke-miterlimit:10;}
	.st7{fill:#DA2F28;}
	.st8{fill:#FFFFFF;stroke:#85144B;stroke-width:5;stroke-miterlimit:10;}
	.st9{fill:#FF4136;stroke:#85144B;stroke-width:9;stroke-miterlimit:10;}
	.st10{opacity:0.95;fill:#FFFFFF;}
	.st11{fill:none;stroke:#C8C8C8;stroke-miterlimit:10;stroke-dasharray:12;}
	.st12{fill:#FF4136;stroke:#FF0000;stroke-miterlimit:10;}
	.st13{fill:#FF0000;}
	.st14{fill:#FFFFFF;stroke:#FF0000;stroke-miterlimit:10;}
	.st15{fill:#1A1A1A;stroke:#FF0000;stroke-miterlimit:10;}
	.st16{fill:#85144B;stroke:#FF0000;stroke-miterlimit:10;}
	.st17{fill:#FF0000;stroke:#FF0000;stroke-miterlimit:10;}
	.st18{fill:none;stroke:#FF0000;stroke-miterlimit:10;}
	.st19{stroke:#FF0000;stroke-miterlimit:10;}
</style>
<g id="Layer_1">
	<g>
		<g>
			<g>
				<path class="st2" d="M50.3,211.7H60v88c-4.1,2.9-6.9,7.4-6.9,12.8c0,8.8,7.2,16,16,16h264.2c8.8,0,16-7.2,16-16
					c0-5.4-2.8-9.9-6.9-12.8v-88h9.7c2.9,0,5.3-2.4,5.3-5.3V169c0-2.9-2.4-5.3-5.3-5.3h-79.9v-7c0-32.1-21.7-58.9-51.2-67.2
					c6.2-5.5,10.2-13.5,10.2-22.4c0-16.6-13.5-30-30-30s-30,13.5-30,30c0,8.9,4,16.9,10.2,22.4c-29.4,8.3-51.2,35.2-51.2,67.2v7
					H50.3c-2.9,0-5.3,2.4-5.3,5.3v37.4C45,209.3,47.4,211.7,50.3,211.7z M70.5,236.6h261.3v59.8H70.5V236.6z M333.3,317.9H69.1
					c-3,0-5.5-2.5-5.5-5.5c0-3,2.5-5.5,5.5-5.5h264.2c3,0,5.5,2.5,5.5,5.5C338.8,315.5,336.3,317.9,333.3,317.9z M331.9,226H70.5
					v-14.3h261.3L331.9,226L331.9,226z M201.2,47.6c10.7,0,19.4,8.7,19.4,19.4c0,10.7-8.7,19.4-19.4,19.4
					c-10.7,0-19.5-8.7-19.5-19.4S190.5,47.6,201.2,47.6z M200.4,97.1h1.6c32.9,0,59.6,26.7,59.6,59.6v6.9h-19.4v-20.7
					c0-2.9-2.4-5.3-5.3-5.3s-5.3,2.4-5.3,5.3v20.8h-59.2v-20.8c0-2.9-2.4-5.3-5.3-5.3s-5.3,2.4-5.3,5.3v20.8h-21v-7
					C140.8,123.8,167.5,97.1,200.4,97.1z M55.6,174.3h291.2v26.8h-9.7H65.3h-9.7V174.3z"/>
			</g>
			<rect x="70.5" y="236.6" class="st1" width="261.3" height="59.8"/>
			<polygon class="st1" points="55.6,174.3 346.8,174.3 346.8,201.1 337.1,201.1 65.3,201.1 55.6,201.1 			"/>
		</g>
		<path class="st0" d="M201.2,47.6c10.7,0,19.4,8.7,19.4,19.4c0,10.7-8.7,19.4-19.4,19.4c-10.7,0-19.5-8.7-19.5-19.4
			S190.5,47.6,201.2,47.6z"/>
		<path class="st0" d="M200.4,97.1h1.6c32.9,0,59.6,26.7,59.6,59.6v6.9h-19.4v-20.7c0-2.9-2.4-5.3-5.3-5.3s-5.3,2.4-5.3,5.3v20.8
			h-59.2v-20.8c0-2.9-2.4-5.3-5.3-5.3s-5.3,2.4-5.3,5.3v20.8h-21v-7C140.8,123.8,167.5,97.1,200.4,97.1z"/>
		<polygon class="st0" points="331.9,226 70.5,226 70.5,211.7 331.8,211.7 331.8,226 		"/>
		<path class="st0" d="M333.3,317.9H69.1c-3,0-5.5-2.5-5.5-5.5c0-3,2.5-5.5,5.5-5.5h264.2c3,0,5.5,2.5,5.5,5.5
			C338.8,315.5,336.3,317.9,333.3,317.9z"/>
	</g>
</g>
<g id="Layer_2">
</g>
<g id="Layer_3">
</g>
<g id="specctr">
	<g id="Dimensions">
	</g>
	<g id="Text_Properties">
	</g>
	<g id="Spacing">
	</g>
	<g id="Object_Properties">
	</g>
</g>
</svg>
