<?xml version="1.0" encoding="utf-8"?>
<!-- Generator: Adobe Illustrator 22.0.1, SVG Export Plug-In . SVG Version: 6.00 Build 0)  -->
<svg version="1.1" xmlns="http://www.w3.org/2000/svg" xmlns:xlink="http://www.w3.org/1999/xlink" x="0px" y="0px"
	 viewBox="0 0 171 217" style="enable-background:new 0 0 171 217;" xml:space="preserve">
<style type="text/css">
	.st0{fill:#FFFFFF;}
	.st1{fill:#FF4136;}
	.st2{fill:#85144B;}
	.st3{fill:#231F20;}
	.st4{fill:#1A1A1A;}
	.st5{fill:#989898;}
	.st6{fill:none;stroke:#1A1A1A;stroke-miterlimit:10;}
	.st7{fill:#DA2F28;}
	.st8{fill:#FFFFFF;stroke:#85144B;stroke-width:5;stroke-miterlimit:10;}
	.st9{fill:#FF4136;stroke:#85144B;stroke-width:9;stroke-miterlimit:10;}
	.st10{opacity:0.95;fill:#FFFFFF;}
	.st11{fill:none;stroke:#C8C8C8;stroke-miterlimit:10;stroke-dasharray:12;}
	.st12{fill:#FF4136;stroke:#FF0000;stroke-miterlimit:10;}
	.st13{fill:#FF0000;}
	.st14{fill:#FFFFFF;stroke:#FF0000;stroke-miterlimit:10;}
	.st15{fill:#1A1A1A;stroke:#FF0000;stroke-miterlimit:10;}
	.st16{fill:#85144B;stroke:#FF0000;stroke-miterlimit:10;}
	.st17{fill:#FF0000;stroke:#FF0000;stroke-miterlimit:10;}
	.st18{fill:none;stroke:#FF0000;stroke-miterlimit:10;}
	.st19{stroke:#FF0000;stroke-miterlimit:10;}
</style>
<g id="Layer_1">
	<g>
		<path class="st1" d="M135.4,150V38.7c0-2.5-2-4.6-4.6-4.6h-92c-2.5,0-4.6,2-4.6,4.6v130.1c0,2.5,2,4.6,4.6,4.6h74.5"/>
		<g>
			<path class="st2" d="M115.7,178.4H38.8c-5.3,0-9.6-4.3-9.6-9.6V38.7c0-5.3,4.3-9.6,9.6-9.6h92c5.3,0,9.6,4.3,9.6,9.6v113.8
				 M135.4,150V38.7c0-2.5-2-4.6-4.6-4.6h-92c-2.5,0-4.6,2-4.6,4.6v130.1c0,2.5,2,4.6,4.6,4.6h74.5"/>
		</g>
		<g>
			<g>
				<rect x="54.8" y="60.5" class="st2" width="60" height="5.1"/>
			</g>
			<g>
				<rect x="54.8" y="80.9" class="st2" width="60" height="5.1"/>
			</g>
			<g>
				<rect x="54.8" y="101.2" class="st2" width="60" height="5.1"/>
			</g>
			<g>
				<rect x="54.8" y="121.6" class="st2" width="60" height="5.1"/>
			</g>
			<g>
				<rect x="54.8" y="141.9" class="st2" width="39.7" height="5.1"/>
			</g>
		</g>
		<polyline class="st8" points="113,173.4 113,148.8 137.4,148.8 		"/>
	</g>
</g>
<g id="Layer_2">
</g>
<g id="Layer_3">
</g>
<g id="specctr">
	<g id="Dimensions">
	</g>
	<g id="Text_Properties">
	</g>
	<g id="Spacing">
	</g>
	<g id="Object_Properties">
	</g>
</g>
</svg>
