<?xml version="1.0" encoding="utf-8"?>
<!-- Generator: Adobe Illustrator 22.0.1, SVG Export Plug-In . SVG Version: 6.00 Build 0)  -->
<svg version="1.1" xmlns="http://www.w3.org/2000/svg" xmlns:xlink="http://www.w3.org/1999/xlink" x="0px" y="0px"
	 viewBox="0 0 301 326" style="enable-background:new 0 0 301 326;" xml:space="preserve">
<style type="text/css">
	.st0{fill:#FFFFFF;}
	.st1{fill:#FF4136;}
	.st2{fill:#85144B;}
	.st3{fill:#231F20;}
	.st4{fill:#1A1A1A;}
	.st5{fill:#989898;}
	.st6{fill:none;stroke:#1A1A1A;stroke-miterlimit:10;}
	.st7{fill:#DA2F28;}
	.st8{fill:#FFFFFF;stroke:#85144B;stroke-width:5;stroke-miterlimit:10;}
	.st9{fill:#FF4136;stroke:#85144B;stroke-width:9;stroke-miterlimit:10;}
	.st10{opacity:0.95;fill:#FFFFFF;}
	.st11{fill:none;stroke:#C8C8C8;stroke-miterlimit:10;stroke-dasharray:12;}
	.st12{fill:#FF4136;stroke:#FF0000;stroke-miterlimit:10;}
	.st13{fill:#FF0000;}
	.st14{fill:#FFFFFF;stroke:#FF0000;stroke-miterlimit:10;}
	.st15{fill:#1A1A1A;stroke:#FF0000;stroke-miterlimit:10;}
	.st16{fill:#85144B;stroke:#FF0000;stroke-miterlimit:10;}
	.st17{fill:#FF0000;stroke:#FF0000;stroke-miterlimit:10;}
	.st18{fill:none;stroke:#FF0000;stroke-miterlimit:10;}
	.st19{stroke:#FF0000;stroke-miterlimit:10;}
</style>
<g id="Layer_1">
	<g>
		<path class="st0" d="M137.8,259.2c2.5,5,7.6,8.2,13.1,8.2c5.5,0,10.6-3.1,13.1-8.2l0.1,0c3.6-7.1,7.9-11.4,13.1-13.1
			c5.2-1.7,11.2-0.8,18.2,2.9l0.1-0.1c5,2.6,10.9,2.2,15.4-1.1c4.5-3.3,6.7-8.8,5.8-14.4l0.1,0c-2.4-15.5,3.9-24.3,19.4-26.7l0-0.1
			c5.6-0.9,10.1-4.7,11.8-10c1.7-5.3,0.3-11.1-3.7-15.1l0-0.1c-11-11.1-11-21.9,0-33l0-0.1c4-4,5.4-9.8,3.7-15.1
			c-1.7-5.3-6.2-9.1-11.8-10l0-0.1c-15.4-2.5-21.8-11.2-19.4-26.7l-0.1,0c0.9-5.6-1.3-11.1-5.8-14.4c-4.5-3.3-10.3-3.7-15.4-1.1
			l-0.1-0.1c-7.1,3.6-13.1,4.5-18.3,2.8c-5.2-1.7-9.5-6-13.1-13.1H164c-2.6-5-7.6-8.2-13.1-8.2c-5.5,0-10.6,3.1-13.1,8.2h-0.1
			c-3.6,7.1-7.9,11.4-13.1,13.1c-5.2,1.7-11.2,0.8-18.3-2.8l-0.1,0c-5-2.6-10.9-2.1-15.4,1.1c-4.5,3.3-6.7,8.8-5.8,14.4l-0.1,0
			c2.4,15.5-3.9,24.3-19.4,26.7l0,0.1c-5.6,0.9-10.1,4.7-11.8,10c-1.7,5.3-0.3,11.1,3.7,15.1l0,0.1c11,11.1,11,21.9,0,33l0,0.1
			c-4,4-5.4,9.8-3.7,15.1c1.7,5.3,6.2,9.1,11.8,10l0,0.1c15.4,2.5,21.8,11.2,19.4,26.7l0.1,0.1c-0.9,5.6,1.3,11.1,5.8,14.4
			s10.4,3.7,15.4,1.1l0.1,0.1c7.1-3.6,13-4.5,18.2-2.9C129.8,247.8,134.1,252.1,137.8,259.2L137.8,259.2z"/>
		<circle class="st9" cx="150.9" cy="164.9" r="69.9"/>
		<g>
			<path class="st2" d="M150.9,276.7c-9,0-17.2-5-21.4-13.2l-0.1,0c-2.4-4.8-5-7.6-7.7-8.5c-2.7-0.9-6.4-0.1-11.2,2.3l-0.1-0.1
				c-8.1,4.1-17.7,3.4-25-1.9c-7.3-5.3-11-14.2-9.5-23.2l-0.1-0.1c1.7-10.6-1.2-14.5-11.7-16.2l0-0.1c-9-1.5-16.3-7.7-19.1-16.3
				c-2.8-8.6-0.5-18,5.9-24.4l0-0.1c7.6-7.6,7.6-12.5,0-20l0-0.1c-6.4-6.5-8.7-15.8-5.9-24.4c2.8-8.6,10.1-14.8,19.1-16.3l0-0.1
				c10.5-1.7,13.4-5.6,11.7-16.2l0.1,0c-1.4-9,2.2-17.9,9.5-23.2c7.3-5.3,16.9-6.1,25-1.9l0.1,0c4.8,2.5,8.5,3.2,11.2,2.3
				c2.7-0.9,5.3-3.7,7.7-8.5l0.1,0c4.1-8.1,12.3-13.2,21.3-13.2c9,0,17.2,5,21.4,13.2l0.1,0c2.4,4.8,5,7.6,7.7,8.5
				c2.7,0.9,6.4,0.1,11.2-2.3l0.1,0.1c8.1-4.1,17.7-3.4,25,1.9c7.3,5.3,11,14.2,9.5,23.2l0.1,0c-1.7,10.6,1.2,14.5,11.7,16.2l0,0.1
				c9,1.5,16.3,7.7,19.1,16.3c2.8,8.6,0.5,17.9-5.9,24.4l0,0.1c-7.6,7.6-7.6,12.5,0,20l0,0.1c6.4,6.5,8.7,15.8,5.9,24.4
				c-2.8,8.6-10.1,14.8-19.1,16.3l0,0.1c-10.5,1.7-13.4,5.6-11.7,16.2l-0.1,0c1.4,9-2.2,17.9-9.6,23.2c-7.3,5.3-16.9,6.1-25,1.9
				l-0.1,0.1c-4.8-2.5-8.5-3.2-11.2-2.3c-2.8,0.9-5.3,3.7-7.7,8.5l-0.1,0C168.1,271.6,159.9,276.7,150.9,276.7z M137.8,259.2
				c2.5,5,7.6,8.2,13.1,8.2c5.5,0,10.6-3.1,13.1-8.2l0.1,0c3.6-7.1,7.9-11.4,13.1-13.1c5.2-1.7,11.2-0.8,18.2,2.9l0.1-0.1
				c5,2.6,10.9,2.2,15.4-1.1c4.5-3.3,6.7-8.8,5.8-14.4l0.1,0c-2.4-15.5,3.9-24.3,19.4-26.7l0-0.1c5.6-0.9,10.1-4.7,11.8-10
				c1.7-5.3,0.3-11.1-3.7-15.1l0-0.1c-11-11.1-11-21.9,0-33l0-0.1c4-4,5.4-9.8,3.7-15.1c-1.7-5.3-6.2-9.1-11.8-10l0-0.1
				c-15.4-2.5-21.8-11.2-19.4-26.7l-0.1,0c0.9-5.6-1.3-11.1-5.8-14.4c-4.5-3.3-10.3-3.7-15.4-1.1l-0.1-0.1
				c-7.1,3.6-13.1,4.5-18.3,2.8c-5.2-1.7-9.5-6-13.1-13.1H164c-2.6-5-7.6-8.2-13.1-8.2c-5.5,0-10.6,3.1-13.1,8.2h-0.1
				c-3.6,7.1-7.9,11.4-13.1,13.1s-11.2,0.8-18.3-2.8l-0.1,0c-5-2.6-10.9-2.1-15.4,1.1c-4.5,3.3-6.7,8.8-5.8,14.4l-0.1,0
				c2.4,15.5-3.9,24.3-19.4,26.7l0,0.1c-5.6,0.9-10.1,4.7-11.8,10c-1.7,5.3-0.3,11.1,3.7,15.1l0,0.1c11,11.1,11,21.9,0,33l0,0.1
				c-4,4-5.4,9.8-3.7,15.1c1.7,5.3,6.2,9.1,11.8,10l0,0.1c15.4,2.5,21.8,11.2,19.4,26.7l0.1,0.1c-0.9,5.6,1.3,11.1,5.8,14.4
				c4.5,3.3,10.4,3.7,15.4,1.1l0.1,0.1c7.1-3.6,13-4.5,18.2-2.9C129.8,247.8,134.1,252.1,137.8,259.2L137.8,259.2z"/>
			<polygon class="st2" points="138,196.3 111.7,164.7 118.9,158.7 141.6,186.1 187.5,130.7 194.7,136.6 145.1,196.3 			"/>
		</g>
	</g>
</g>
<g id="Layer_2">
</g>
<g id="Layer_3">
</g>
<g id="specctr">
	<g id="Dimensions">
	</g>
	<g id="Text_Properties">
	</g>
	<g id="Spacing">
	</g>
	<g id="Object_Properties">
	</g>
</g>
</svg>
