<?xml version="1.0" encoding="utf-8"?>
<!-- Generator: Adobe Illustrator 22.0.1, SVG Export Plug-In . SVG Version: 6.00 Build 0)  -->
<svg version="1.1" xmlns="http://www.w3.org/2000/svg" xmlns:xlink="http://www.w3.org/1999/xlink" x="0px" y="0px"
	 viewBox="0 0 378.7 107.7" style="enable-background:new 0 0 378.7 107.7;" xml:space="preserve">
<style type="text/css">
	.st0{fill:#FFFFFF;}
	.st1{fill:#FF4136;}
	.st2{fill:#85144B;}
	.st3{fill:#231F20;}
	.st4{fill:#1A1A1A;}
	.st5{fill:#989898;}
	.st6{fill:none;stroke:#1A1A1A;stroke-miterlimit:10;}
	.st7{fill:#DA2F28;}
	.st8{fill:#FFFFFF;stroke:#85144B;stroke-width:5;stroke-miterlimit:10;}
	.st9{fill:#FF4136;stroke:#85144B;stroke-width:9;stroke-miterlimit:10;}
	.st10{opacity:0.95;fill:#FFFFFF;}
	.st11{fill:none;stroke:#C8C8C8;stroke-miterlimit:10;stroke-dasharray:12;}
	.st12{fill:#FF4136;stroke:#FF0000;stroke-miterlimit:10;}
	.st13{fill:#FF0000;}
	.st14{fill:#FFFFFF;stroke:#FF0000;stroke-miterlimit:10;}
	.st15{fill:#1A1A1A;stroke:#FF0000;stroke-miterlimit:10;}
	.st16{fill:#85144B;stroke:#FF0000;stroke-miterlimit:10;}
	.st17{fill:#FF0000;stroke:#FF0000;stroke-miterlimit:10;}
	.st18{fill:none;stroke:#FF0000;stroke-miterlimit:10;}
	.st19{stroke:#FF0000;stroke-miterlimit:10;}
</style>
<g id="Layer_1">
	<g>
		<g>
			<g>
				<path class="st3" d="M11.9,75.3l0.2-43.1c0.1-11.5,7.7-19.4,18.8-19.4c10.9,0,18.6,8,18.6,19.5l-0.2,43.1
					c0,11.4-7.8,19.3-18.8,19.3C19.4,94.7,11.9,86.7,11.9,75.3z M26.1,31.6l-0.2,44.2c0,4.8,2.6,5.4,4.6,5.4c1.9,0,4.6-0.5,4.6-5.3
					l0.2-44.2c0-4.8-2.4-5.4-4.5-5.4C28.6,26.3,26.1,26.8,26.1,31.6z"/>
				<path class="st3" d="M97.8,31.6L84,31.5c0-4.3-2.6-5.4-4.6-5.4c-2.2,0-4.2,1.2-4.2,4.1c0,1.9,1.2,4.8,3.3,7.9l13.7,20.4
					c5.4,8.2,6.3,12.9,6.3,18.8c0,10.8-7.9,17.6-19.1,17.6c-11.2,0-19.1-7.8-19-19.3l14,0.1c0,4.7,2.9,5.6,5.3,5.6
					c2.3,0,4.8-1.2,4.8-4.3c0-2.5-0.4-4.1-3.5-8.7L67.2,47.6c-5.4-8.2-6.1-13.1-6.1-17.8c0-10.4,7.7-17,18.5-17
					C90.2,12.9,97.8,20.6,97.8,31.6z"/>
				<path class="st3" d="M132.8,32c0-4.8-2.6-5.4-4.5-5.4c-2,0-4.7,0.5-4.7,5.3l-0.2,44.3c0,4.9,2.5,5.4,4.6,5.4
					c2.2,0,4.6-0.4,4.6-5.3l0-5.8l14.1,0.1l0,5.3c0,11.4-7.8,19.3-18.8,19.3c-11,0-18.6-8-18.6-19.4l0.2-43.4
					c0.1-11.4,7.7-19.3,18.8-19.3c10.9,0,18.6,8,18.6,19.4l0,5l-14.1-0.1L132.8,32z"/>
			</g>
		</g>
		<g>
			<g>
				<path class="st1" d="M193.2,70.4h-29.6V14.4h14.1v42.6h15.5V70.4z"/>
				<path class="st1" d="M233,27.9h-17.5v8.6h13.3v12.2h-13.3v8.2H233v13.5h-31.5V14.4H233V27.9z"/>
				<path class="st1" d="M278.4,39.9V52c0,11.4-7.7,19.3-18.7,19.3c-11,0-18.7-7.9-18.7-19.3V32.7c0-11.4,7.7-19.4,18.7-19.4
					c10.9,0,18.5,7.8,18.7,18.9h-14.1c0-4.8-2.5-5.4-4.6-5.4c-2.2,0-4.6,0.6-4.6,5.4v20.2c0,4.8,2.7,5.3,4.6,5.3
					c2,0,4.6-0.6,4.6-5.3v-0.4h-4.5V39.9H278.4z"/>
				<path class="st1" d="M311.3,61h-11.5l-2.1,9.4h-14.1l14.6-56.1h15.1l14.4,56.1h-14.1L311.3,61z M302.5,48.8h6.1L305.7,33
					L302.5,48.8z"/>
				<path class="st1" d="M364.8,70.4h-29.6V14.4h14.1v42.6h15.5V70.4z"/>
			</g>
			<rect x="163.6" y="82.8" class="st1" width="201.2" height="10.9"/>
		</g>
	</g>
</g>
<g id="Layer_2">
</g>
<g id="Layer_3">
</g>
<g id="specctr">
	<g id="Dimensions">
	</g>
	<g id="Text_Properties">
	</g>
	<g id="Spacing">
	</g>
	<g id="Object_Properties">
	</g>
</g>
</svg>
